<svg xmlns="http://www.w3.org/2000/svg" xmlns:xlink="http://www.w3.org/1999/xlink" width="200" zoomAndPan="magnify" viewBox="0 0 150 149.999998" height="200" preserveAspectRatio="xMidYMid meet" version="1.0"><defs><clipPath id="6afc0674f1"><path d="M 16.378906 20.523438 L 130 20.523438 L 130 134 L 16.378906 134 Z M 16.378906 20.523438 " clip-rule="nonzero"/></clipPath><clipPath id="93994c6209"><path d="M 16.378906 20.523438 L 73 20.523438 L 73 78 L 16.378906 78 Z M 16.378906 20.523438 " clip-rule="nonzero"/></clipPath></defs><g clip-path="url(#6afc0674f1)"><path fill="#ffffff" d="M 72.921875 20.542969 C 61.738281 20.542969 50.804688 23.867188 41.507812 30.09375 C 32.210938 36.324219 24.960938 45.175781 20.683594 55.53125 C 16.402344 65.886719 15.285156 77.28125 17.464844 88.277344 C 19.648438 99.269531 25.03125 109.371094 32.941406 117.296875 C 40.847656 125.222656 50.921875 130.621094 61.890625 132.808594 C 72.859375 134.996094 84.226562 133.871094 94.558594 129.582031 C 104.890625 125.292969 113.722656 118.027344 119.933594 108.707031 C 126.148438 99.386719 129.464844 88.429688 129.464844 77.21875 L 101.191406 77.21875 C 101.191406 82.824219 99.535156 88.304688 96.429688 92.964844 C 93.320312 97.625 88.90625 101.257812 83.742188 103.402344 C 78.574219 105.546875 72.890625 106.105469 67.40625 105.015625 C 61.921875 103.921875 56.882812 101.222656 52.929688 97.257812 C 48.976562 93.296875 46.285156 88.246094 45.195312 82.75 C 44.101562 77.25 44.664062 71.554688 46.800781 66.375 C 48.941406 61.199219 52.566406 56.769531 57.214844 53.65625 C 61.863281 50.542969 67.328125 48.882812 72.921875 48.882812 Z M 72.921875 20.542969 " fill-opacity="1" fill-rule="nonzero"/></g><g clip-path="url(#93994c6209)"><path fill="#5ce1e6" d="M 72.921875 20.542969 C 65.496094 20.542969 58.144531 22.007812 51.285156 24.859375 C 44.421875 27.707031 38.191406 31.878906 32.941406 37.144531 C 27.6875 42.40625 23.523438 48.65625 20.683594 55.53125 C 17.839844 62.40625 16.378906 69.777344 16.378906 77.21875 L 44.648438 77.21875 C 44.648438 73.5 45.382812 69.8125 46.800781 66.375 C 48.222656 62.9375 50.304688 59.8125 52.929688 57.183594 C 55.554688 54.550781 58.671875 52.464844 62.101562 51.039062 C 65.53125 49.613281 69.207031 48.882812 72.921875 48.882812 Z M 72.921875 20.542969 " fill-opacity="1" fill-rule="nonzero"/></g><path fill="#5ce1e6" d="M 90.589844 77.21875 C 90.589844 77.800781 90.5625 78.378906 90.503906 78.957031 C 90.449219 79.535156 90.363281 80.105469 90.25 80.675781 C 90.136719 81.246094 89.996094 81.804688 89.828125 82.363281 C 89.660156 82.917969 89.46875 83.460938 89.246094 83.996094 C 89.023438 84.535156 88.777344 85.058594 88.503906 85.570312 C 88.230469 86.082031 87.933594 86.578125 87.613281 87.058594 C 87.292969 87.542969 86.949219 88.007812 86.582031 88.457031 C 86.214844 88.90625 85.824219 89.332031 85.414062 89.742188 C 85.007812 90.152344 84.578125 90.542969 84.132812 90.910156 C 83.683594 91.277344 83.21875 91.625 82.738281 91.945312 C 82.257812 92.269531 81.761719 92.566406 81.25 92.839844 C 80.742188 93.113281 80.21875 93.359375 79.683594 93.582031 C 79.148438 93.804688 78.605469 94 78.050781 94.167969 C 77.496094 94.335938 76.9375 94.476562 76.367188 94.589844 C 75.800781 94.703125 75.230469 94.789062 74.652344 94.847656 C 74.078125 94.902344 73.5 94.929688 72.921875 94.929688 C 72.34375 94.929688 71.765625 94.902344 71.191406 94.847656 C 70.613281 94.789062 70.042969 94.703125 69.472656 94.589844 C 68.90625 94.476562 68.347656 94.335938 67.792969 94.167969 C 67.238281 94 66.695312 93.804688 66.160156 93.582031 C 65.625 93.359375 65.101562 93.113281 64.59375 92.839844 C 64.082031 92.566406 63.585938 92.269531 63.105469 91.945312 C 62.625 91.625 62.160156 91.277344 61.710938 90.910156 C 61.265625 90.542969 60.835938 90.152344 60.425781 89.742188 C 60.019531 89.332031 59.628906 88.90625 59.261719 88.457031 C 58.894531 88.007812 58.550781 87.542969 58.230469 87.058594 C 57.910156 86.578125 57.613281 86.082031 57.339844 85.570312 C 57.066406 85.058594 56.820312 84.535156 56.597656 83.996094 C 56.375 83.460938 56.179688 82.917969 56.011719 82.363281 C 55.84375 81.804688 55.703125 81.246094 55.59375 80.675781 C 55.480469 80.105469 55.394531 79.535156 55.335938 78.957031 C 55.28125 78.378906 55.253906 77.800781 55.253906 77.21875 C 55.253906 76.640625 55.28125 76.0625 55.335938 75.484375 C 55.394531 74.90625 55.480469 74.332031 55.59375 73.765625 C 55.703125 73.195312 55.84375 72.632812 56.011719 72.078125 C 56.179688 71.523438 56.375 70.976562 56.597656 70.441406 C 56.820312 69.90625 57.066406 69.382812 57.339844 68.871094 C 57.613281 68.359375 57.910156 67.863281 58.230469 67.378906 C 58.550781 66.898438 58.894531 66.433594 59.261719 65.984375 C 59.628906 65.535156 60.019531 65.105469 60.425781 64.695312 C 60.835938 64.285156 61.265625 63.898438 61.710938 63.53125 C 62.160156 63.160156 62.625 62.816406 63.105469 62.492188 C 63.585938 62.171875 64.082031 61.875 64.59375 61.601562 C 65.101562 61.328125 65.625 61.078125 66.160156 60.855469 C 66.695312 60.636719 67.238281 60.441406 67.792969 60.273438 C 68.347656 60.101562 68.90625 59.960938 69.472656 59.847656 C 70.042969 59.734375 70.613281 59.652344 71.191406 59.59375 C 71.765625 59.539062 72.34375 59.507812 72.921875 59.507812 C 73.5 59.507812 74.078125 59.539062 74.652344 59.59375 C 75.230469 59.652344 75.800781 59.734375 76.367188 59.847656 C 76.9375 59.960938 77.496094 60.101562 78.050781 60.273438 C 78.605469 60.441406 79.148438 60.636719 79.683594 60.855469 C 80.21875 61.078125 80.742188 61.328125 81.25 61.601562 C 81.761719 61.875 82.257812 62.171875 82.738281 62.492188 C 83.21875 62.816406 83.683594 63.160156 84.132812 63.53125 C 84.578125 63.898438 85.007812 64.285156 85.414062 64.695312 C 85.824219 65.105469 86.214844 65.535156 86.582031 65.984375 C 86.949219 66.433594 87.292969 66.898438 87.613281 67.378906 C 87.933594 67.863281 88.230469 68.359375 88.503906 68.871094 C 88.777344 69.382812 89.023438 69.90625 89.246094 70.441406 C 89.46875 70.976562 89.660156 71.523438 89.828125 72.078125 C 89.996094 72.632812 90.136719 73.195312 90.25 73.765625 C 90.363281 74.332031 90.449219 74.90625 90.503906 75.484375 C 90.5625 76.0625 90.589844 76.640625 90.589844 77.21875 Z M 90.589844 77.21875 " fill-opacity="1" fill-rule="nonzero"/><path fill="#ffffff" d="M 90.589844 77.21875 C 90.589844 74.894531 90.132812 72.589844 89.246094 70.441406 C 88.359375 68.292969 87.054688 66.339844 85.414062 64.695312 C 83.773438 63.050781 81.828125 61.746094 79.683594 60.855469 C 77.539062 59.964844 75.242188 59.507812 72.921875 59.507812 C 70.601562 59.507812 68.304688 59.964844 66.160156 60.855469 C 64.015625 61.746094 62.066406 63.050781 60.425781 64.695312 C 58.785156 66.339844 57.484375 68.292969 56.597656 70.441406 C 55.710938 72.589844 55.25 74.894531 55.25 77.21875 Z M 90.589844 77.21875 " fill-opacity="1" fill-rule="nonzero"/></svg>