<svg xmlns="http://www.w3.org/2000/svg" xmlns:xlink="http://www.w3.org/1999/xlink" width="500" zoomAndPan="magnify" viewBox="0 0 375 374.999991" height="500" preserveAspectRatio="xMidYMid meet" version="1.0"><defs><clipPath id="70894c9d79"><path d="M 69.148438 75.316406 L 305.851562 75.316406 L 305.851562 276 L 69.148438 276 Z M 69.148438 75.316406 " clip-rule="nonzero"/></clipPath><clipPath id="01398d2d17"><path d="M 53.347656 124.050781 L 321.609375 124.050781 L 321.609375 299.414062 L 53.347656 299.414062 Z M 53.347656 124.050781 " clip-rule="nonzero"/></clipPath></defs><g clip-path="url(#70894c9d79)"><path fill="#000000" d="M 293.972656 92.816406 L 165.910156 92.816406 L 165.910156 87 C 165.910156 80.546875 160.675781 75.316406 154.21875 75.316406 L 80.980469 75.316406 C 74.523438 75.316406 69.289062 80.546875 69.289062 87 L 69.289062 263.847656 C 69.289062 270.300781 74.523438 275.53125 80.980469 275.53125 L 293.972656 275.53125 C 300.433594 275.53125 305.667969 270.300781 305.667969 263.847656 L 305.667969 104.496094 C 305.667969 98.042969 300.433594 92.816406 293.972656 92.816406 " fill-opacity="1" fill-rule="nonzero"/></g><path fill="#ffffff" d="M 80.785156 175.421875 L 294.175781 175.421875 L 294.175781 102 L 80.785156 102 Z M 80.785156 175.421875 " fill-opacity="1" fill-rule="nonzero"/><path fill="#000000" d="M 305.667969 139.183594 L 294.175781 139.183594 L 294.175781 116.601562 L 305.667969 116.601562 L 305.667969 139.183594 M 80.785156 139.183594 L 69.289062 139.183594 L 69.289062 116.601562 L 80.785156 116.601562 L 80.785156 139.183594 " fill-opacity="1" fill-rule="nonzero"/><path fill="#e8e8e8" d="M 80.785156 139.183594 L 294.175781 139.183594 L 294.175781 116.601562 L 80.785156 116.601562 Z M 80.785156 139.183594 " fill-opacity="1" fill-rule="nonzero"/><g clip-path="url(#01398d2d17)"><path fill="#5ce1e6" d="M 309.628906 124.199219 L 65.328125 124.199219 C 58.257812 124.199219 52.90625 129.90625 53.375 136.90625 L 63.496094 288.679688 C 63.894531 294.621094 69.449219 299.414062 75.902344 299.414062 L 299.050781 299.414062 C 305.507812 299.414062 311.0625 294.621094 311.460938 288.679688 L 321.578125 136.90625 C 322.046875 129.90625 316.699219 124.199219 309.628906 124.199219 " fill-opacity="1" fill-rule="nonzero"/></g></svg>