<svg xmlns="http://www.w3.org/2000/svg" xmlns:xlink="http://www.w3.org/1999/xlink" width="500" zoomAndPan="magnify" viewBox="0 0 375 374.999991" height="500" preserveAspectRatio="xMidYMid meet" version="1.0"><defs><clipPath id="e3a9adc439"><path d="M 49.535156 47.632812 L 331.472656 47.632812 L 331.472656 286.851562 L 49.535156 286.851562 Z M 49.535156 47.632812 " clip-rule="nonzero"/></clipPath><clipPath id="fcb0c15d6e"><path d="M 30.714844 105.679688 L 350.246094 105.679688 L 350.246094 314.558594 L 30.714844 314.558594 Z M 30.714844 105.679688 " clip-rule="nonzero"/></clipPath></defs><g clip-path="url(#e3a9adc439)"><path fill="#5ce1e6" d="M 317.328125 68.480469 L 164.789062 68.480469 L 164.789062 61.550781 C 164.789062 53.867188 158.554688 47.632812 150.859375 47.632812 L 63.628906 47.632812 C 55.933594 47.632812 49.699219 53.867188 49.699219 61.550781 L 49.699219 272.199219 C 49.699219 279.882812 55.933594 286.113281 63.628906 286.113281 L 317.328125 286.113281 C 325.019531 286.113281 331.253906 279.882812 331.253906 272.199219 L 331.253906 82.390625 C 331.253906 74.707031 325.019531 68.480469 317.328125 68.480469 " fill-opacity="1" fill-rule="nonzero"/></g><path fill="#ffffff" d="M 63.398438 166.875 L 317.566406 166.875 L 317.566406 79.417969 L 63.398438 79.417969 Z M 63.398438 166.875 " fill-opacity="1" fill-rule="nonzero"/><path fill="#5ce1e6" d="M 331.253906 123.707031 L 317.566406 123.707031 L 317.566406 96.808594 L 331.253906 96.808594 L 331.253906 123.707031 M 63.398438 123.707031 L 49.699219 123.707031 L 49.699219 96.808594 L 63.398438 96.808594 L 63.398438 123.707031 " fill-opacity="1" fill-rule="nonzero"/><path fill="#e8e8e8" d="M 63.398438 123.707031 L 317.566406 123.707031 L 317.566406 96.808594 L 63.398438 96.808594 Z M 63.398438 123.707031 " fill-opacity="1" fill-rule="nonzero"/><g clip-path="url(#fcb0c15d6e)"><path fill="#5ce1e6" d="M 335.972656 105.859375 L 44.984375 105.859375 C 36.5625 105.859375 30.191406 112.65625 30.746094 120.996094 L 42.800781 301.773438 C 43.277344 308.851562 49.890625 314.558594 57.582031 314.558594 L 323.375 314.558594 C 331.066406 314.558594 337.683594 308.851562 338.15625 301.773438 L 350.207031 120.996094 C 350.765625 112.65625 344.394531 105.859375 335.972656 105.859375 " fill-opacity="1" fill-rule="nonzero"/></g></svg>