<svg xmlns="http://www.w3.org/2000/svg" xmlns:xlink="http://www.w3.org/1999/xlink" width="500" zoomAndPan="magnify" viewBox="0 0 375 374.999991" height="500" preserveAspectRatio="xMidYMid meet" version="1.0"><defs><clipPath id="aa1850f587"><path d="M 63.246094 69.726562 L 312 69.726562 L 312 280.824219 L 63.246094 280.824219 Z M 63.246094 69.726562 " clip-rule="nonzero"/></clipPath><clipPath id="48a1fd9434"><path d="M 46.632812 121 L 328.609375 121 L 328.609375 305.277344 L 46.632812 305.277344 Z M 46.632812 121 " clip-rule="nonzero"/></clipPath></defs><g clip-path="url(#aa1850f587)"><path fill="#1d71b8" d="M 299.558594 88.121094 L 164.949219 88.121094 L 164.949219 82.007812 C 164.949219 75.226562 159.449219 69.726562 152.660156 69.726562 L 75.679688 69.726562 C 68.890625 69.726562 63.390625 75.226562 63.390625 82.007812 L 63.390625 267.894531 C 63.390625 274.675781 68.890625 280.175781 75.679688 280.175781 L 299.558594 280.175781 C 306.347656 280.175781 311.851562 274.675781 311.851562 267.894531 L 311.851562 100.398438 C 311.851562 93.617188 306.347656 88.121094 299.558594 88.121094 " fill-opacity="1" fill-rule="nonzero"/></g><path fill="#ffffff" d="M 75.476562 174.949219 L 299.769531 174.949219 L 299.769531 97.773438 L 75.476562 97.773438 Z M 75.476562 174.949219 " fill-opacity="1" fill-rule="nonzero"/><path fill="#1a67a7" d="M 311.851562 136.859375 L 299.769531 136.859375 L 299.769531 113.121094 L 311.851562 113.121094 L 311.851562 136.859375 M 75.476562 136.859375 L 63.390625 136.859375 L 63.390625 113.121094 L 75.476562 113.121094 L 75.476562 136.859375 " fill-opacity="1" fill-rule="nonzero"/><path fill="#e8e8e8" d="M 75.476562 136.859375 L 299.769531 136.859375 L 299.769531 113.121094 L 75.476562 113.121094 Z M 75.476562 136.859375 " fill-opacity="1" fill-rule="nonzero"/><g clip-path="url(#48a1fd9434)"><path fill="#36a9e1" d="M 316.015625 121.105469 L 59.226562 121.105469 C 51.796875 121.105469 46.171875 127.105469 46.664062 134.464844 L 57.304688 293.996094 C 57.71875 300.238281 63.558594 305.277344 70.34375 305.277344 L 304.894531 305.277344 C 311.683594 305.277344 317.523438 300.238281 317.941406 293.996094 L 328.574219 134.464844 C 329.066406 127.105469 323.445312 121.105469 316.015625 121.105469 " fill-opacity="1" fill-rule="nonzero"/></g></svg>