<svg xmlns="http://www.w3.org/2000/svg" xmlns:xlink="http://www.w3.org/1999/xlink" width="500" zoomAndPan="magnify" viewBox="0 0 375 374.999991" height="500" preserveAspectRatio="xMidYMid meet" version="1.0"><defs><clipPath id="00878dc32d"><path d="M 59.039062 324 L 63 324 L 63 338 L 59.039062 338 Z M 59.039062 324 " clip-rule="nonzero"/></clipPath><clipPath id="e5e7cd6908"><path d="M 59.039062 26.421875 L 316.289062 26.421875 L 316.289062 261 L 59.039062 261 Z M 59.039062 26.421875 " clip-rule="nonzero"/></clipPath><clipPath id="8dcf0a4d04"><path d="M 312 324 L 316.289062 324 L 316.289062 338 L 312 338 Z M 312 324 " clip-rule="nonzero"/></clipPath><clipPath id="ce9e624a77"><path d="M 272 26.421875 L 316.289062 26.421875 L 316.289062 75 L 272 75 Z M 272 26.421875 " clip-rule="nonzero"/></clipPath><clipPath id="2f76f39a7f"><path d="M 62 337 L 313 337 L 313 348.921875 L 62 348.921875 Z M 62 337 " clip-rule="nonzero"/></clipPath><clipPath id="5943c1918d"><path d="M 59.039062 260 L 316.289062 260 L 316.289062 347 L 59.039062 347 Z M 59.039062 260 " clip-rule="nonzero"/></clipPath></defs><g clip-path="url(#00878dc32d)"><path fill="#e6e6e6" d="M 59.039062 326.035156 C 59.039062 330.210938 60.328125 334.109375 62.535156 337.300781 C 60.296875 333.667969 59.039062 329.429688 59.039062 324.851562 Z M 59.039062 326.035156 " fill-opacity="1" fill-rule="nonzero"/></g><path fill="#e6e6e6" d="M 195.433594 93.574219 C 195.128906 88.078125 191.738281 85.195312 189.53125 84.960938 C 189.464844 84.960938 189.363281 84.960938 189.292969 84.960938 C 187.191406 84.960938 186.105469 87.84375 185.628906 89.605469 C 183.324219 98.390625 185.800781 107.210938 190.683594 115.523438 C 194.996094 102.257812 195.605469 96.222656 195.433594 93.574219 Z M 195.433594 93.574219 " fill-opacity="1" fill-rule="nonzero"/><path fill="#e6e6e6" d="M 194.621094 139.910156 C 192.3125 145.8125 189.972656 151.375 188.003906 155.988281 C 192.652344 154.328125 195.707031 153.308594 195.976562 153.242188 L 196.046875 153.207031 C 196.316406 153.105469 200.117188 151.953125 205.648438 150.5625 C 202.019531 147.273438 198.25 143.710938 194.621094 139.910156 Z M 194.621094 139.910156 " fill-opacity="1" fill-rule="nonzero"/><path fill="#e6e6e6" d="M 143.152344 191.914062 C 141.996094 193.167969 141.65625 193.949219 141.554688 194.253906 C 141.65625 194.355469 141.828125 194.558594 142.132812 194.828125 C 145.832031 197.882812 148.273438 197.613281 149.800781 197.171875 C 152.109375 196.457031 154.6875 194.421875 157.300781 191.234375 C 159.742188 188.25 162.183594 184.3125 164.527344 179.566406 C 164.730469 179.125 164.96875 178.683594 165.171875 178.242188 C 158.691406 181.296875 153.398438 184.179688 149.359375 186.890625 C 146.644531 188.691406 144.574219 190.386719 143.152344 191.914062 Z M 143.152344 191.914062 " fill-opacity="1" fill-rule="nonzero"/><g clip-path="url(#e5e7cd6908)"><path fill="#e6e6e6" d="M 282.226562 76.546875 C 278.695312 76.546875 275.371094 75.019531 273.066406 72.339844 C 270.691406 69.59375 269.671875 65.964844 270.25 62.367188 L 276.289062 26.546875 L 79.023438 26.546875 C 67.996094 26.546875 59.039062 35.5 59.039062 46.527344 L 59.039062 260.773438 L 316.257812 260.773438 L 316.257812 75.664062 L 282.53125 76.511719 C 282.429688 76.546875 282.328125 76.546875 282.226562 76.546875 Z M 258.40625 162.332031 C 257.863281 165.25 256.304688 167.894531 253.859375 169.964844 C 250.738281 172.613281 246.464844 174.070312 241.882812 174.070312 C 241.273438 174.070312 240.664062 174.035156 240.019531 174.003906 C 234.386719 173.527344 228.855469 170.914062 224.105469 166.503906 C 222.207031 164.742188 219.730469 162.671875 216.878906 160.230469 C 207.75 162.128906 200.21875 164.4375 199.644531 164.605469 C 198.996094 164.808594 190.921875 167.488281 180.914062 171.457031 C 179.691406 174.882812 177.828125 179.667969 175.347656 184.652344 C 172.601562 190.25 169.648438 195 166.628906 198.695312 C 162.457031 203.851562 157.945312 207.175781 153.296875 208.601562 C 151.769531 209.078125 149.96875 209.414062 147.96875 209.414062 C 144.101562 209.414062 139.417969 208.160156 134.464844 204.054688 C 129.171875 199.679688 129.207031 194.695312 129.679688 192.117188 C 130.257812 189.132812 131.921875 186.246094 134.734375 183.296875 C 136.875 181.089844 139.621094 178.886719 143.183594 176.546875 C 148.75 172.882812 156.179688 169.015625 165.304688 164.980469 C 167.613281 163.960938 169.921875 162.976562 172.160156 162.0625 C 173.890625 158.261719 179.015625 146.796875 183.96875 134.042969 C 184.578125 132.484375 185.15625 130.988281 185.699219 129.566406 C 180.609375 122.816406 176.976562 116.132812 174.910156 109.722656 C 172.328125 101.785156 172.023438 93.980469 174.027344 86.519531 C 175.214844 82.007812 177.316406 78.515625 180.304688 76.140625 C 183.253906 73.765625 186.953125 72.679688 190.71875 73.050781 C 192.890625 73.289062 195.027344 73.96875 197.0625 75.121094 C 198.996094 76.207031 200.695312 77.664062 202.1875 79.429688 C 203.679688 81.195312 204.902344 83.261719 205.785156 85.5 C 206.699219 87.84375 207.242188 90.351562 207.378906 92.964844 C 207.648438 97.78125 206.460938 104.597656 203.746094 113.859375 C 202.558594 117.929688 201.066406 122.441406 199.304688 127.359375 C 205.851562 134.925781 213.554688 141.777344 220.203125 147.476562 C 220.339844 147.441406 220.507812 147.441406 220.644531 147.40625 C 228.3125 146.117188 234.828125 145.609375 240.019531 145.882812 C 243.480469 146.085938 246.363281 146.628906 248.839844 147.507812 C 252.128906 148.730469 254.640625 150.597656 256.304688 153.074219 C 258.273438 155.957031 258.984375 159.144531 258.40625 162.332031 Z M 258.40625 162.332031 " fill-opacity="1" fill-rule="nonzero"/></g><path fill="#e6e6e6" d="M 239.441406 157.789062 C 237.40625 157.6875 235.066406 157.71875 232.453125 157.921875 C 238.695312 163.589844 244.328125 162.367188 246.089844 160.875 C 246.464844 160.570312 246.601562 160.296875 246.601562 160.230469 C 246.601562 160.195312 246.566406 159.992188 246.328125 159.621094 C 246.089844 159.210938 244.292969 158.058594 239.441406 157.789062 Z M 239.441406 157.789062 " fill-opacity="1" fill-rule="nonzero"/><g clip-path="url(#8dcf0a4d04)"><path fill="#e6e6e6" d="M 316.257812 326.035156 L 316.257812 324.882812 C 316.257812 329.429688 315 333.703125 312.761719 337.332031 C 314.96875 334.078125 316.257812 330.210938 316.257812 326.035156 Z M 316.257812 326.035156 " fill-opacity="1" fill-rule="nonzero"/></g><g clip-path="url(#ce9e624a77)"><path fill="#e6e6e6" d="M 305.195312 55.753906 L 299.597656 49.308594 L 279.886719 26.546875 L 278.832031 26.546875 L 274.898438 49.917969 L 272.726562 62.773438 C 271.707031 68.777344 276.425781 74.171875 282.496094 74.035156 L 295.527344 73.695312 L 316.289062 73.1875 L 316.289062 70.441406 Z M 305.195312 55.753906 " fill-opacity="1" fill-rule="nonzero"/></g><g clip-path="url(#2f76f39a7f)"><path fill="#5ce1e6" d="M 296.273438 346.015625 L 79.023438 346.015625 C 72.171875 346.015625 66.132812 342.554688 62.535156 337.300781 C 66.707031 344.183594 74.308594 348.796875 82.996094 348.796875 L 292.335938 348.796875 C 300.988281 348.796875 308.589844 344.183594 312.796875 337.300781 C 309.199219 342.554688 303.125 346.015625 296.273438 346.015625 Z M 296.273438 346.015625 " fill-opacity="1" fill-rule="nonzero"/></g><path fill="#5ce1e6" d="M 206.394531 304.023438 C 206.460938 292.21875 199.609375 285.332031 187.292969 285.332031 C 184.171875 285.332031 182.035156 285.570312 180.574219 285.875 L 180.574219 324.441406 C 181.929688 324.679688 184 324.679688 186.003906 324.679688 C 198.828125 324.78125 206.394531 317.691406 206.394531 304.023438 Z M 206.394531 304.023438 " fill-opacity="1" fill-rule="nonzero"/><g clip-path="url(#5943c1918d)"><path fill="#5ce1e6" d="M 59.039062 324.851562 C 59.039062 329.394531 60.296875 333.667969 62.535156 337.300781 C 66.132812 342.558594 72.171875 346.015625 79.023438 346.015625 L 296.304688 346.015625 C 303.160156 346.015625 309.199219 342.558594 312.796875 337.300781 C 315 333.667969 316.289062 329.429688 316.289062 324.851562 L 316.289062 260.738281 L 59.039062 260.738281 Z M 225.328125 278.074219 L 256.507812 278.074219 L 256.507812 286.144531 L 235.167969 286.144531 L 235.167969 301.003906 L 254.980469 301.003906 L 254.980469 308.976562 L 235.167969 308.976562 L 235.167969 331.90625 L 225.328125 331.90625 Z M 170.769531 278.785156 C 175.144531 278.140625 180.609375 277.664062 186.410156 277.664062 C 196.488281 277.664062 203.339844 279.734375 208.292969 283.90625 C 213.554688 288.148438 216.777344 294.59375 216.777344 303.71875 C 216.777344 313.382812 213.484375 320.472656 208.394531 325.121094 C 203.035156 330.003906 194.484375 332.480469 184.035156 332.480469 C 178.367188 332.480469 174.058594 332.175781 170.769531 331.769531 Z M 126.117188 278.785156 C 129.714844 278.140625 134.601562 277.664062 141.148438 277.664062 C 148.34375 277.664062 153.53125 279.191406 156.960938 282.042969 C 160.148438 284.6875 162.21875 288.894531 162.21875 293.949219 C 162.21875 299.070312 160.625 303.207031 157.671875 306.089844 C 153.667969 309.992188 147.59375 311.925781 140.675781 311.925781 C 138.839844 311.925781 137.246094 311.859375 135.890625 311.519531 L 135.890625 331.871094 L 126.152344 331.871094 L 126.152344 278.785156 Z M 126.117188 278.785156 " fill-opacity="1" fill-rule="nonzero"/></g><path fill="#5ce1e6" d="M 152.480469 294.355469 C 152.480469 288.351562 148.34375 285.265625 141.523438 285.265625 C 138.808594 285.265625 136.875 285.5 135.855469 285.738281 L 135.855469 303.785156 C 137.144531 304.191406 138.636719 304.257812 140.640625 304.257812 C 148.003906 304.257812 152.480469 300.597656 152.480469 294.355469 Z M 152.480469 294.355469 " fill-opacity="1" fill-rule="nonzero"/><path fill="#ffffff" d="M 135.890625 311.519531 C 137.246094 311.824219 138.839844 311.925781 140.675781 311.925781 C 147.628906 311.925781 153.703125 309.992188 157.671875 306.089844 C 160.625 303.207031 162.21875 299.070312 162.21875 293.949219 C 162.21875 288.925781 160.148438 284.6875 156.960938 282.042969 C 153.53125 279.15625 148.34375 277.664062 141.148438 277.664062 C 134.601562 277.664062 129.714844 278.140625 126.117188 278.785156 L 126.117188 331.90625 L 135.855469 331.90625 L 135.855469 311.519531 Z M 135.890625 285.738281 C 136.941406 285.5 138.839844 285.265625 141.554688 285.265625 C 148.34375 285.265625 152.515625 288.382812 152.515625 294.355469 C 152.515625 300.597656 148.035156 304.257812 140.707031 304.257812 C 138.707031 304.257812 137.179688 304.191406 135.925781 303.785156 L 135.925781 285.738281 Z M 135.890625 285.738281 " fill-opacity="1" fill-rule="nonzero"/><path fill="#ffffff" d="M 208.394531 325.121094 C 213.519531 320.472656 216.777344 313.382812 216.777344 303.71875 C 216.777344 294.625 213.585938 288.148438 208.292969 283.90625 C 203.339844 279.769531 196.488281 277.664062 186.410156 277.664062 C 180.574219 277.664062 175.144531 278.140625 170.769531 278.785156 L 170.769531 331.734375 C 174.058594 332.144531 178.367188 332.449219 184.035156 332.449219 C 194.519531 332.449219 203.070312 329.972656 208.394531 325.121094 Z M 180.609375 285.910156 C 182.035156 285.601562 184.203125 285.367188 187.328125 285.367188 C 199.644531 285.367188 206.496094 292.21875 206.429688 304.054688 C 206.429688 317.726562 198.828125 324.816406 186.070312 324.746094 C 184.070312 324.746094 182 324.746094 180.640625 324.511719 L 180.640625 285.910156 Z M 180.609375 285.910156 " fill-opacity="1" fill-rule="nonzero"/><path fill="#ffffff" d="M 235.167969 308.976562 L 254.980469 308.976562 L 254.980469 301.003906 L 235.167969 301.003906 L 235.167969 286.144531 L 256.507812 286.144531 L 256.507812 278.074219 L 225.328125 278.074219 L 225.328125 331.90625 L 235.167969 331.90625 Z M 235.167969 308.976562 " fill-opacity="1" fill-rule="nonzero"/><path fill="#5ce1e6" d="M 248.90625 147.441406 C 246.429688 146.527344 243.546875 146.015625 240.085938 145.8125 C 234.894531 145.507812 228.347656 146.015625 220.710938 147.339844 C 220.578125 147.375 220.40625 147.375 220.269531 147.40625 C 213.621094 141.742188 205.886719 134.855469 199.371094 127.292969 C 201.136719 122.339844 202.628906 117.828125 203.816406 113.792969 C 206.53125 104.566406 207.71875 97.714844 207.445312 92.898438 C 207.3125 90.285156 206.769531 87.773438 205.851562 85.433594 C 204.96875 83.195312 203.78125 81.160156 202.253906 79.363281 C 200.761719 77.597656 199.03125 76.140625 197.132812 75.054688 C 195.128906 73.902344 192.992188 73.222656 190.785156 72.984375 C 187.019531 72.613281 183.324219 73.695312 180.371094 76.070312 C 177.417969 78.445312 175.28125 81.972656 174.09375 86.453125 C 172.125 93.914062 172.429688 101.714844 174.976562 109.652344 C 177.046875 116.066406 180.675781 122.746094 185.765625 129.496094 C 185.222656 130.921875 184.644531 132.414062 184.035156 133.976562 C 179.046875 146.730469 173.957031 158.195312 172.226562 161.992188 C 169.988281 162.910156 167.679688 163.894531 165.375 164.910156 C 156.246094 168.949219 148.816406 172.847656 143.253906 176.476562 C 139.691406 178.820312 136.941406 181.023438 134.804688 183.230469 C 131.953125 186.179688 130.292969 189.0625 129.75 192.046875 C 129.273438 194.625 129.238281 199.613281 134.53125 203.988281 C 139.488281 208.09375 144.167969 209.347656 148.035156 209.347656 C 150.039062 209.347656 151.835938 209.007812 153.363281 208.535156 C 158.046875 207.109375 162.523438 203.785156 166.699219 198.628906 C 169.71875 194.929688 172.636719 190.183594 175.417969 184.585938 C 177.859375 179.597656 179.761719 174.78125 180.980469 171.390625 C 190.992188 167.421875 199.066406 164.742188 199.710938 164.539062 C 200.289062 164.367188 207.820312 162.0625 216.945312 160.164062 C 219.796875 162.570312 222.273438 164.675781 224.171875 166.4375 C 228.957031 170.847656 234.453125 173.425781 240.085938 173.933594 C 240.695312 174.003906 241.339844 174.003906 241.953125 174.003906 C 246.5 174.003906 250.808594 172.542969 253.929688 169.898438 C 256.371094 167.828125 257.933594 165.183594 258.476562 162.265625 C 259.050781 159.078125 258.339844 155.855469 256.441406 152.972656 C 254.710938 150.527344 252.234375 148.664062 248.90625 147.441406 Z M 164.527344 179.53125 C 162.183594 184.28125 159.742188 188.214844 157.300781 191.199219 C 154.6875 194.390625 152.109375 196.425781 149.800781 197.136719 C 148.273438 197.613281 145.832031 197.847656 142.132812 194.796875 C 141.792969 194.523438 141.625 194.320312 141.554688 194.21875 C 141.65625 193.914062 141.996094 193.132812 143.152344 191.878906 C 144.574219 190.351562 146.644531 188.65625 149.359375 186.824219 C 153.398438 184.109375 158.691406 181.226562 165.171875 178.175781 C 164.96875 178.683594 164.761719 179.125 164.527344 179.53125 Z M 185.664062 89.574219 C 186.140625 87.808594 187.222656 84.925781 189.328125 84.925781 C 189.394531 84.925781 189.496094 84.925781 189.566406 84.925781 C 191.769531 85.164062 195.164062 88.046875 195.46875 93.542969 C 195.605469 96.1875 195.027344 102.257812 190.753906 115.488281 C 185.832031 107.175781 183.324219 98.359375 185.664062 89.574219 Z M 196.046875 153.207031 L 195.976562 153.242188 C 195.707031 153.34375 192.652344 154.328125 188.003906 155.988281 C 189.972656 151.375 192.3125 145.8125 194.621094 139.910156 C 198.25 143.710938 202.019531 147.273438 205.648438 150.5625 C 200.117188 151.953125 196.316406 153.105469 196.046875 153.207031 Z M 246.632812 160.195312 C 246.632812 160.265625 246.5 160.5 246.125 160.839844 C 244.359375 162.332031 238.730469 163.554688 232.484375 157.890625 C 235.097656 157.6875 237.441406 157.652344 239.476562 157.753906 C 244.328125 158.023438 246.089844 159.179688 246.363281 159.585938 C 246.601562 159.992188 246.632812 160.195312 246.632812 160.195312 Z M 246.632812 160.195312 " fill-opacity="1" fill-rule="nonzero"/></svg>